<svg width="24" height="24" viewBox="0 0 24 24" fill="none" xmlns="http://www.w3.org/2000/svg">
<path d="M12.0001 15C11.7349 14.9999 11.4806 14.8945 11.2931 14.707L7.29308 10.707C7.19757 10.6148 7.12139 10.5044 7.06898 10.3824C7.01657 10.2604 6.98898 10.1292 6.98783 9.9964C6.98668 9.86362 7.01198 9.73194 7.06226 9.60905C7.11254 9.48615 7.18679 9.3745 7.28069 9.2806C7.37458 9.18671 7.48623 9.11246 7.60913 9.06218C7.73202 9.0119 7.8637 8.98659 7.99648 8.98775C8.12926 8.9889 8.26048 9.01649 8.38249 9.0689C8.50449 9.12131 8.61483 9.19749 8.70708 9.293L12.0001 12.586L15.2931 9.293C15.4817 9.11084 15.7343 9.01005 15.9965 9.01233C16.2587 9.0146 16.5095 9.11977 16.6949 9.30518C16.8803 9.49059 16.9855 9.7414 16.9878 10.0036C16.99 10.2658 16.8892 10.5184 16.7071 10.707L12.7071 14.707C12.5196 14.8945 12.2653 14.9999 12.0001 15Z" fill="#1C1B1E"/>
</svg>
