<svg xmlns="http://www.w3.org/2000/svg"  viewBox="0 0 24 24" width="24px" height="24px"><path d="M3,5v14c0,1.105,0.895,2,2,2h14c1.105,0,2-0.895,2-2V5c0-1.105-0.895-2-2-2H5C3.895,3,3,3.895,3,5z M8.268,6h2.476 l0.018,4.345l0.354-0.317c0.495-0.436,0.911-0.589,1.699-0.618c0.519-0.015,0.73,0.006,1.093,0.135 c0.797,0.267,1.36,0.815,1.653,1.623c0.114,0.317,0.129,0.647,0.15,3.214l0.024,2.868h-2.505v-2.341 c0-2.306-0.006-2.335-0.161-2.616c-0.22-0.372-0.457-0.542-0.832-0.583c-0.638-0.07-1.081,0.146-1.333,0.668 c-0.12,0.24-0.135,0.492-0.141,2.517c-0.009,1.236-0.024,2.329-0.024,2.356H8.272"/></svg>