<svg width="24" height="24" viewBox="0 0 24 24" fill="none" xmlns="http://www.w3.org/2000/svg">
<path d="M11.9999 9C12.2651 9.00006 12.5194 9.10545 12.7069 9.293L16.7069 13.293C16.8024 13.3852 16.8786 13.4956 16.931 13.6176C16.9834 13.7396 17.011 13.8708 17.0122 14.0036C17.0133 14.1364 16.988 14.2681 16.9377 14.391C16.8875 14.5139 16.8132 14.6255 16.7193 14.7194C16.6254 14.8133 16.5138 14.8875 16.3909 14.9378C16.268 14.9881 16.1363 15.0134 16.0035 15.0123C15.8707 15.0111 15.7395 14.9835 15.6175 14.9311C15.4955 14.8787 15.3852 14.8025 15.2929 14.707L11.9999 11.414L8.70692 14.707C8.51832 14.8892 8.26571 14.99 8.00352 14.9877C7.74132 14.9854 7.49051 14.8802 7.3051 14.6948C7.11969 14.5094 7.01452 14.2586 7.01224 13.9964C7.00997 13.7342 7.11076 13.4816 7.29292 13.293L11.2929 9.293C11.4804 9.10545 11.7347 9.00006 11.9999 9Z" fill="#1C1B1E"/>
</svg>
