<svg width="1438" height="731" viewBox="0 0 1438 731" fill="none" xmlns="http://www.w3.org/2000/svg">
<path fill-rule="evenodd" clip-rule="evenodd" d="M810 5C810 54.7056 769.706 95 720 95C769.706 95 810 135.294 810 185C810 234.706 769.706 275 720 275C769.706 275 810 315.294 810 365C810 414.706 769.706 455 720 455C769.706 455 810 495.294 810 545C810 594.706 769.706 635 720 635C769.706 635 810 675.294 810 725C810 774.706 769.706 815 720 815C672.311 815 633.284 777.908 630.197 731H0V0H630.137C632.731 -47.3799 671.972 -85 720 -85C769.706 -85 810 -44.7056 810 5ZM990 5C990 -44.7056 949.706 -85 900 -85C850.294 -85 810 -44.7056 810 5C810 54.7056 850.294 95 900 95C850.294 95 810 135.294 810 185C810 234.706 850.294 275 900 275C850.294 275 810 315.294 810 365C810 414.706 850.294 455 900 455C850.294 455 810 495.294 810 545C810 594.706 850.294 635 900 635C850.294 635 810 675.294 810 725C810 774.706 850.294 815 900 815C949.706 815 990 774.706 990 725C990 774.706 1030.29 815 1080 815C1129.71 815 1170 774.706 1170 725C1170 774.706 1210.29 815 1260 815C1309.71 815 1350 774.706 1350 725C1350 774.706 1390.29 815 1440 815C1489.71 815 1530 774.706 1530 725C1530 675.294 1489.71 635 1440 635C1489.71 635 1530 594.706 1530 545C1530 495.294 1489.71 455 1440 455C1489.71 455 1530 414.706 1530 365C1530 315.294 1489.71 275 1440 275C1489.71 275 1530 234.706 1530 185C1530 135.294 1489.71 95 1440 95C1489.71 95 1530 54.7056 1530 5C1530 -44.7056 1489.71 -85 1440 -85C1390.29 -85 1350 -44.7056 1350 5C1350 -44.7056 1309.71 -85 1260 -85C1210.29 -85 1170 -44.7056 1170 5C1170 -44.7056 1129.71 -85 1080 -85C1030.29 -85 990 -44.7056 990 5ZM1080 95C1030.29 95 990 54.7056 990 5C990 54.7056 949.706 95 900 95C949.706 95 990 135.294 990 185C990 234.706 949.706 275 900 275C949.706 275 990 315.294 990 365C990 414.706 949.706 455 900 455C949.706 455 990 495.294 990 545C990 594.706 949.706 635 900 635C949.706 635 990 675.294 990 725C990 675.294 1030.29 635 1080 635C1129.71 635 1170 675.294 1170 725C1170 675.294 1210.29 635 1260 635C1309.71 635 1350 675.294 1350 725C1350 675.294 1390.29 635 1440 635C1390.29 635 1350 594.706 1350 545C1350 495.294 1390.29 455 1440 455C1390.29 455 1350 414.706 1350 365C1350 315.294 1390.29 275 1440 275C1390.29 275 1350 234.706 1350 185C1350 135.294 1390.29 95 1440 95C1390.29 95 1350 54.7056 1350 5C1350 54.7056 1309.71 95 1260 95C1210.29 95 1170 54.7056 1170 5C1170 54.7056 1129.71 95 1080 95ZM1170 185C1170 135.294 1129.71 95 1080 95C1030.29 95 990 135.294 990 185C990 234.706 1030.29 275 1080 275C1030.29 275 990 315.294 990 365C990 414.706 1030.29 455 1080 455C1030.29 455 990 495.294 990 545C990 594.706 1030.29 635 1080 635C1129.71 635 1170 594.706 1170 545C1170 594.706 1210.29 635 1260 635C1309.71 635 1350 594.706 1350 545C1350 495.294 1309.71 455 1260 455C1309.71 455 1350 414.706 1350 365C1350 315.294 1309.71 275 1260 275C1309.71 275 1350 234.706 1350 185C1350 135.294 1309.71 95 1260 95C1210.29 95 1170 135.294 1170 185ZM1170 365C1170 315.294 1129.71 275 1080 275C1129.71 275 1170 234.706 1170 185C1170 234.706 1210.29 275 1260 275C1210.29 275 1170 315.294 1170 365ZM1170 365C1170 414.706 1210.29 455 1260 455C1210.29 455 1170 495.294 1170 545C1170 495.294 1129.71 455 1080 455C1129.71 455 1170 414.706 1170 365Z" fill="#B286FD"/>
</svg>
