<svg width="36" height="26" viewBox="0 0 36 26" fill="none" xmlns="http://www.w3.org/2000/svg">
<mask id="path-1-outside-1_54_6759" maskUnits="userSpaceOnUse" x="-1" y="-0.665771" width="38" height="27" fill="black">
<rect fill="white" x="-1" y="-0.665771" width="38" height="27"/>
<path d="M35.8947 12.0496L31.9505 1.43045C31.7946 1.01048 31.4834 0.676072 31.0744 0.488548C30.6651 0.301377 30.209 0.283799 29.789 0.43947L27.149 1.41984C26.28 1.74271 25.8354 2.71253 26.1582 3.5816L26.201 3.69691C25.5764 3.934 24.8793 3.67504 23.8138 3.22877C22.2229 2.5627 20.065 1.66832 17.3257 3.38163C15.1025 1.99781 13.3579 2.33917 11.813 2.64679C11.0282 2.80274 10.2807 2.94956 9.50874 2.86968C9.48702 2.66683 9.4314 2.46693 9.33542 2.27941C9.13018 1.87877 8.78242 1.58233 8.35632 1.44487L5.67636 0.580377C5.25006 0.442916 4.79464 0.480322 4.39414 0.685072C3.99364 0.890314 3.6972 1.23808 3.55988 1.66417L0.0813133 12.445C-0.203241 13.3274 0.28304 14.2768 1.16546 14.5613L3.84535 15.4261C4.01189 15.4801 4.18587 15.5077 4.36095 15.5078C4.62413 15.5078 4.88577 15.4451 5.12743 15.3214C5.2767 15.2449 5.40573 15.143 5.52322 15.0302C5.53974 15.1118 5.56189 15.1924 5.58186 15.2734L4.91094 16.5277C4.62322 17.066 4.56746 17.7186 4.75829 18.3181C4.94406 18.9018 5.33584 19.368 5.84968 19.6247C6.28091 19.856 6.77521 19.9421 7.25923 19.8702C7.12543 20.3139 7.12796 20.8006 7.27302 21.2566C7.45878 21.8403 7.85056 22.3067 8.36441 22.5634C8.90188 22.8508 9.52056 22.9108 10.1068 22.7335C10.3374 22.6639 10.5557 22.5586 10.7537 22.4213C10.9419 22.996 11.3306 23.4546 11.8386 23.7085C12.3759 23.9959 12.9946 24.0559 13.5809 23.8786C13.7096 23.8395 13.8348 23.7895 13.955 23.7289C14.1312 24.4366 14.6345 25.0669 15.2617 25.4024C15.5613 25.5625 15.9141 25.6658 16.2804 25.6658C16.946 25.6658 17.6557 25.3247 18.1691 24.365L18.2693 24.1777L18.3827 24.2372L18.6505 24.3768C18.9784 24.5456 19.299 24.62 19.6003 24.62C20.3522 24.62 20.9837 24.1566 21.3066 23.5413C21.5289 23.1179 21.6072 22.6144 21.4993 22.1257C21.7706 22.1398 22.0449 22.1075 22.313 22.0263C22.9151 21.8439 23.4092 21.4396 23.7042 20.888C23.9426 20.4424 24.0288 19.9422 23.957 19.4489C24.4606 19.6579 25.0175 19.6851 25.5486 19.5243C26.1559 19.3402 26.6543 18.9323 26.9519 18.376C27.1951 17.921 27.2814 17.4097 27.2041 16.9064C28.0249 17.2336 28.8168 17.084 29.3667 16.4815C29.9241 15.871 30.1116 14.9357 29.9031 14.101L30.0384 14.0524L30.0461 14.0496L30.1024 14.201C30.3539 14.8776 30.9976 15.2968 31.6804 15.2968C31.8796 15.2968 32.0772 15.2612 32.2639 15.1917L34.9037 14.2113C35.7729 13.8884 36.2174 12.9188 35.8947 12.0496ZM5.03595 14.0435C4.97816 14.2224 4.85321 14.3687 4.6839 14.4554C4.51431 14.542 4.3227 14.5579 4.14404 14.5004L1.46401 13.6354C1.0922 13.5155 0.887235 13.1155 1.00712 12.7437L4.48583 1.96286C4.54349 1.78406 4.66843 1.63774 4.83767 1.55111C4.93787 1.49941 5.04893 1.47232 5.16167 1.47208C5.23497 1.47212 5.30781 1.48365 5.37753 1.50625L8.05756 2.37088C8.23637 2.42854 8.38269 2.55349 8.46931 2.72273C8.55594 2.89204 8.5719 3.08364 8.51431 3.26259L5.73718 11.8701C5.72502 11.8936 5.71327 11.9176 5.70491 11.9436C5.68051 12.0189 5.66167 12.095 5.64022 12.1708L5.03595 14.0435ZM6.29666 18.7607C6.00781 18.6164 5.79069 18.3545 5.68543 18.0231C5.57377 17.6724 5.60422 17.2946 5.76889 16.9867L6.52686 15.5695C6.527 15.5694 6.52721 15.5692 6.52728 15.569L6.88932 14.8921C7.22661 14.2618 8.00813 14.0182 8.64235 14.3383C9.05839 14.6292 9.68241 15.2477 9.20893 16.1328L8.95095 16.6151L8.08759 18.2293C7.74502 18.8672 6.94754 19.1091 6.29666 18.7607ZM10.6034 21.166C10.4387 21.4742 10.162 21.7001 9.82438 21.8024C9.48695 21.9047 9.13124 21.8702 8.81138 21.6994C8.52254 21.5551 8.30542 21.293 8.20016 20.9617C8.0885 20.6111 8.11909 20.2333 8.28376 19.9255L8.94554 18.6884L9.80891 17.0742C9.97358 16.7662 10.2503 16.5403 10.5877 16.438C10.9253 16.3354 11.2807 16.37 11.589 16.5348C11.897 16.6995 12.123 16.9762 12.2253 17.3138C12.3276 17.6513 12.293 18.007 12.1282 18.3152L11.8857 18.7687C11.8856 18.7692 11.8852 18.7696 11.885 18.7701L10.8999 20.6116L10.8998 20.6119L10.6034 21.166ZM13.2986 22.9475C12.9609 23.0498 12.6056 23.0153 12.2856 22.8444C11.9968 22.7001 11.7798 22.4382 11.6744 22.107C11.5631 21.7567 11.5932 21.3797 11.7572 21.072L11.758 21.0706L12.743 19.229L12.7432 19.2284L12.7437 19.2275C12.9086 18.9201 13.185 18.6948 13.5219 18.5926C13.8592 18.4898 14.2149 18.5245 14.523 18.6895C15.1624 19.0316 15.4044 19.8302 15.0625 20.4696L14.57 21.3905L14.1335 22.2067L14.133 22.2076L14.0776 22.3112C13.9129 22.6191 13.6361 22.8452 13.2986 22.9475ZM15.7206 24.5445C15.0828 24.2034 14.6265 23.3478 14.9915 22.6654L15.4281 21.8492L15.4286 21.8481C15.5988 21.5308 15.9014 21.2758 16.2592 21.1488C16.6163 21.0218 16.9748 21.0387 17.269 21.1961C17.91 21.5388 18.0135 21.8387 18.0353 22.0344C18.0685 22.3304 17.9432 22.7239 17.6296 23.3103L17.629 23.3117L17.3111 23.9061C16.7727 24.9136 16.0837 24.7385 15.7206 24.5445ZM20.4451 23.0894C20.2157 23.5272 19.7096 23.8278 19.0958 23.512L18.8351 23.376C18.792 23.3532 18.7518 23.3321 18.7145 23.3126C18.9115 22.8744 19.0551 22.3983 19.0022 21.9262C18.9426 21.3939 18.6472 20.9499 18.1113 20.5755L20.0272 21.6044C20.6675 22.054 20.6653 22.67 20.4451 23.0894ZM28.6481 15.8257C28.3348 16.1691 27.9049 16.1983 27.3698 15.9118L25.9823 15.1697L25.9794 15.1683C25.9652 15.1607 25.9503 15.1564 25.9358 15.1503L21.4616 12.7217C21.226 12.5932 20.9303 12.6809 20.8021 12.9172C20.7716 12.9733 20.7525 13.0349 20.7458 13.0985C20.7391 13.162 20.745 13.2262 20.7632 13.2875C20.7814 13.3487 20.8114 13.4058 20.8516 13.4554C20.8918 13.505 20.9414 13.5463 20.9976 13.5767L25.5664 16.0568C25.8688 16.2341 26.0934 16.513 26.1968 16.8536C26.3054 17.2122 26.2689 17.5898 26.0937 17.9172C25.9187 18.2445 25.6248 18.4846 25.2663 18.5932C24.9071 18.7017 24.5297 18.6653 24.2027 18.4903L22.8232 17.7524C22.7989 17.7325 22.7727 17.7149 22.7451 17.6999L19.4158 15.9198C19.3594 15.8897 19.2977 15.8709 19.2342 15.8646C19.1706 15.8584 19.1064 15.8647 19.0453 15.8832C18.9841 15.9018 18.9272 15.9322 18.8779 15.9727C18.8285 16.0133 18.7876 16.0631 18.7575 16.1195C18.7274 16.1758 18.7086 16.2376 18.7024 16.3011C18.6961 16.3647 18.7024 16.4289 18.7209 16.49C18.7395 16.5512 18.7699 16.608 18.8104 16.6574C18.851 16.7068 18.9008 16.7477 18.9572 16.7778L22.2028 18.5132C22.2269 18.5328 22.253 18.5508 22.2814 18.566C22.604 18.7384 22.8406 19.0279 22.9476 19.3814C23.0547 19.7347 23.0186 20.1068 22.8461 20.4292C22.6736 20.7518 22.384 20.9882 22.0307 21.0955C21.6776 21.2023 21.3053 21.1664 20.9828 20.9939L20.2786 20.6173C20.2439 20.5993 20.2071 20.5855 20.1691 20.5763L17.3266 19.0501C17.0899 18.9221 16.7949 19.0116 16.668 19.2485C16.6378 19.3048 16.6189 19.3664 16.6125 19.43C16.6061 19.4935 16.6123 19.5577 16.6308 19.6189C16.6492 19.6801 16.6795 19.737 16.7199 19.7865C16.7604 19.8359 16.8102 19.8769 16.8665 19.9071L17.4638 20.2279C17.0583 20.0784 16.614 20.0501 16.1695 20.1608C16.2951 19.2398 15.848 18.2947 14.9818 17.8313C14.4495 17.5466 13.837 17.4847 13.2557 17.6565C13.2513 17.4446 13.2179 17.2343 13.1563 17.0315C12.9786 16.4451 12.5848 15.964 12.0476 15.6768C11.5076 15.3882 10.9027 15.3385 10.3552 15.4911C10.3459 14.6647 9.82128 13.9774 9.19656 13.5388C9.17502 13.5222 9.15213 13.5074 9.12814 13.4946C8.19545 12.9959 7.0682 13.2115 6.37731 13.9494C6.36613 13.4435 6.43531 12.9355 6.57587 12.4383L9.35244 3.83254C10.291 3.94117 11.1595 3.76898 12.0024 3.60093C13.4039 3.32221 14.7349 3.05728 16.4548 3.99475C16.0801 4.29309 15.7033 4.63354 15.3286 5.01203C15.032 5.31199 14.727 5.61145 14.4294 5.90359C13.3446 6.96904 12.4078 7.88922 12.1399 8.54228C12.1081 8.61987 12.0968 8.70437 12.1073 8.78758C12.1177 8.87079 12.1495 8.94988 12.1996 9.01717C14.1359 11.6212 16.4824 10.7376 18.3671 10.0278C19.7801 9.49558 21.0005 9.03574 21.9726 9.80502C21.991 9.81958 22.0103 9.83273 22.0306 9.84447C22.4948 10.1135 23.1343 10.4293 23.8748 10.795C25.665 11.6792 28.1169 12.8902 28.7505 13.8532C29.1762 14.4999 29.0411 15.3951 28.6481 15.8257ZM29.4877 13.2167C28.6384 12.0649 26.2443 10.8801 24.3059 9.92287C23.5968 9.57257 22.9822 9.26917 22.5473 9.01942C21.1509 7.9402 19.5617 8.53849 18.0244 9.11744C16.2024 9.80327 14.618 10.3997 13.1708 8.67785C13.5107 8.16984 14.3225 7.37263 15.1112 6.598C15.4121 6.30248 15.7203 5.99971 16.0202 5.69659C16.54 5.17164 17.0601 4.73008 17.5672 4.38112C20.0179 2.69587 21.8346 3.45517 23.4379 4.12617C24.1876 4.44004 24.9528 4.76038 25.7097 4.76038C25.9877 4.76038 26.2643 4.70962 26.5389 4.60703L29.7073 13.1376L29.4877 13.2167ZM34.5652 13.2992L31.9254 14.2796C31.558 14.4151 31.1502 14.2282 31.0143 13.8621L27.0703 3.24262C27.0049 3.06656 27.0125 2.87446 27.0916 2.70149C27.171 2.52859 27.3116 2.39732 27.4877 2.33186L30.1275 1.35149C30.2057 1.32235 30.2884 1.3074 30.3719 1.30734C30.4729 1.30734 30.5738 1.32935 30.6689 1.37287C30.8417 1.45204 30.973 1.59281 31.0384 1.76908L34.9825 12.3883C35.1186 12.7546 34.9313 13.1631 34.5652 13.2992Z"/>
</mask>
<path d="M35.8947 12.0496L31.9505 1.43045C31.7946 1.01048 31.4834 0.676072 31.0744 0.488548C30.6651 0.301377 30.209 0.283799 29.789 0.43947L27.149 1.41984C26.28 1.74271 25.8354 2.71253 26.1582 3.5816L26.201 3.69691C25.5764 3.934 24.8793 3.67504 23.8138 3.22877C22.2229 2.5627 20.065 1.66832 17.3257 3.38163C15.1025 1.99781 13.3579 2.33917 11.813 2.64679C11.0282 2.80274 10.2807 2.94956 9.50874 2.86968C9.48702 2.66683 9.4314 2.46693 9.33542 2.27941C9.13018 1.87877 8.78242 1.58233 8.35632 1.44487L5.67636 0.580377C5.25006 0.442916 4.79464 0.480322 4.39414 0.685072C3.99364 0.890314 3.6972 1.23808 3.55988 1.66417L0.0813133 12.445C-0.203241 13.3274 0.28304 14.2768 1.16546 14.5613L3.84535 15.4261C4.01189 15.4801 4.18587 15.5077 4.36095 15.5078C4.62413 15.5078 4.88577 15.4451 5.12743 15.3214C5.2767 15.2449 5.40573 15.143 5.52322 15.0302C5.53974 15.1118 5.56189 15.1924 5.58186 15.2734L4.91094 16.5277C4.62322 17.066 4.56746 17.7186 4.75829 18.3181C4.94406 18.9018 5.33584 19.368 5.84968 19.6247C6.28091 19.856 6.77521 19.9421 7.25923 19.8702C7.12543 20.3139 7.12796 20.8006 7.27302 21.2566C7.45878 21.8403 7.85056 22.3067 8.36441 22.5634C8.90188 22.8508 9.52056 22.9108 10.1068 22.7335C10.3374 22.6639 10.5557 22.5586 10.7537 22.4213C10.9419 22.996 11.3306 23.4546 11.8386 23.7085C12.3759 23.9959 12.9946 24.0559 13.5809 23.8786C13.7096 23.8395 13.8348 23.7895 13.955 23.7289C14.1312 24.4366 14.6345 25.0669 15.2617 25.4024C15.5613 25.5625 15.9141 25.6658 16.2804 25.6658C16.946 25.6658 17.6557 25.3247 18.1691 24.365L18.2693 24.1777L18.3827 24.2372L18.6505 24.3768C18.9784 24.5456 19.299 24.62 19.6003 24.62C20.3522 24.62 20.9837 24.1566 21.3066 23.5413C21.5289 23.1179 21.6072 22.6144 21.4993 22.1257C21.7706 22.1398 22.0449 22.1075 22.313 22.0263C22.9151 21.8439 23.4092 21.4396 23.7042 20.888C23.9426 20.4424 24.0288 19.9422 23.957 19.4489C24.4606 19.6579 25.0175 19.6851 25.5486 19.5243C26.1559 19.3402 26.6543 18.9323 26.9519 18.376C27.1951 17.921 27.2814 17.4097 27.2041 16.9064C28.0249 17.2336 28.8168 17.084 29.3667 16.4815C29.9241 15.871 30.1116 14.9357 29.9031 14.101L30.0384 14.0524L30.0461 14.0496L30.1024 14.201C30.3539 14.8776 30.9976 15.2968 31.6804 15.2968C31.8796 15.2968 32.0772 15.2612 32.2639 15.1917L34.9037 14.2113C35.7729 13.8884 36.2174 12.9188 35.8947 12.0496ZM5.03595 14.0435C4.97816 14.2224 4.85321 14.3687 4.6839 14.4554C4.51431 14.542 4.3227 14.5579 4.14404 14.5004L1.46401 13.6354C1.0922 13.5155 0.887235 13.1155 1.00712 12.7437L4.48583 1.96286C4.54349 1.78406 4.66843 1.63774 4.83767 1.55111C4.93787 1.49941 5.04893 1.47232 5.16167 1.47208C5.23497 1.47212 5.30781 1.48365 5.37753 1.50625L8.05756 2.37088C8.23637 2.42854 8.38269 2.55349 8.46931 2.72273C8.55594 2.89204 8.5719 3.08364 8.51431 3.26259L5.73718 11.8701C5.72502 11.8936 5.71327 11.9176 5.70491 11.9436C5.68051 12.0189 5.66167 12.095 5.64022 12.1708L5.03595 14.0435ZM6.29666 18.7607C6.00781 18.6164 5.79069 18.3545 5.68543 18.0231C5.57377 17.6724 5.60422 17.2946 5.76889 16.9867L6.52686 15.5695C6.527 15.5694 6.52721 15.5692 6.52728 15.569L6.88932 14.8921C7.22661 14.2618 8.00813 14.0182 8.64235 14.3383C9.05839 14.6292 9.68241 15.2477 9.20893 16.1328L8.95095 16.6151L8.08759 18.2293C7.74502 18.8672 6.94754 19.1091 6.29666 18.7607ZM10.6034 21.166C10.4387 21.4742 10.162 21.7001 9.82438 21.8024C9.48695 21.9047 9.13124 21.8702 8.81138 21.6994C8.52254 21.5551 8.30542 21.293 8.20016 20.9617C8.0885 20.6111 8.11909 20.2333 8.28376 19.9255L8.94554 18.6884L9.80891 17.0742C9.97358 16.7662 10.2503 16.5403 10.5877 16.438C10.9253 16.3354 11.2807 16.37 11.589 16.5348C11.897 16.6995 12.123 16.9762 12.2253 17.3138C12.3276 17.6513 12.293 18.007 12.1282 18.3152L11.8857 18.7687C11.8856 18.7692 11.8852 18.7696 11.885 18.7701L10.8999 20.6116L10.8998 20.6119L10.6034 21.166ZM13.2986 22.9475C12.9609 23.0498 12.6056 23.0153 12.2856 22.8444C11.9968 22.7001 11.7798 22.4382 11.6744 22.107C11.5631 21.7567 11.5932 21.3797 11.7572 21.072L11.758 21.0706L12.743 19.229L12.7432 19.2284L12.7437 19.2275C12.9086 18.9201 13.185 18.6948 13.5219 18.5926C13.8592 18.4898 14.2149 18.5245 14.523 18.6895C15.1624 19.0316 15.4044 19.8302 15.0625 20.4696L14.57 21.3905L14.1335 22.2067L14.133 22.2076L14.0776 22.3112C13.9129 22.6191 13.6361 22.8452 13.2986 22.9475ZM15.7206 24.5445C15.0828 24.2034 14.6265 23.3478 14.9915 22.6654L15.4281 21.8492L15.4286 21.8481C15.5988 21.5308 15.9014 21.2758 16.2592 21.1488C16.6163 21.0218 16.9748 21.0387 17.269 21.1961C17.91 21.5388 18.0135 21.8387 18.0353 22.0344C18.0685 22.3304 17.9432 22.7239 17.6296 23.3103L17.629 23.3117L17.3111 23.9061C16.7727 24.9136 16.0837 24.7385 15.7206 24.5445ZM20.4451 23.0894C20.2157 23.5272 19.7096 23.8278 19.0958 23.512L18.8351 23.376C18.792 23.3532 18.7518 23.3321 18.7145 23.3126C18.9115 22.8744 19.0551 22.3983 19.0022 21.9262C18.9426 21.3939 18.6472 20.9499 18.1113 20.5755L20.0272 21.6044C20.6675 22.054 20.6653 22.67 20.4451 23.0894ZM28.6481 15.8257C28.3348 16.1691 27.9049 16.1983 27.3698 15.9118L25.9823 15.1697L25.9794 15.1683C25.9652 15.1607 25.9503 15.1564 25.9358 15.1503L21.4616 12.7217C21.226 12.5932 20.9303 12.6809 20.8021 12.9172C20.7716 12.9733 20.7525 13.0349 20.7458 13.0985C20.7391 13.162 20.745 13.2262 20.7632 13.2875C20.7814 13.3487 20.8114 13.4058 20.8516 13.4554C20.8918 13.505 20.9414 13.5463 20.9976 13.5767L25.5664 16.0568C25.8688 16.2341 26.0934 16.513 26.1968 16.8536C26.3054 17.2122 26.2689 17.5898 26.0937 17.9172C25.9187 18.2445 25.6248 18.4846 25.2663 18.5932C24.9071 18.7017 24.5297 18.6653 24.2027 18.4903L22.8232 17.7524C22.7989 17.7325 22.7727 17.7149 22.7451 17.6999L19.4158 15.9198C19.3594 15.8897 19.2977 15.8709 19.2342 15.8646C19.1706 15.8584 19.1064 15.8647 19.0453 15.8832C18.9841 15.9018 18.9272 15.9322 18.8779 15.9727C18.8285 16.0133 18.7876 16.0631 18.7575 16.1195C18.7274 16.1758 18.7086 16.2376 18.7024 16.3011C18.6961 16.3647 18.7024 16.4289 18.7209 16.49C18.7395 16.5512 18.7699 16.608 18.8104 16.6574C18.851 16.7068 18.9008 16.7477 18.9572 16.7778L22.2028 18.5132C22.2269 18.5328 22.253 18.5508 22.2814 18.566C22.604 18.7384 22.8406 19.0279 22.9476 19.3814C23.0547 19.7347 23.0186 20.1068 22.8461 20.4292C22.6736 20.7518 22.384 20.9882 22.0307 21.0955C21.6776 21.2023 21.3053 21.1664 20.9828 20.9939L20.2786 20.6173C20.2439 20.5993 20.2071 20.5855 20.1691 20.5763L17.3266 19.0501C17.0899 18.9221 16.7949 19.0116 16.668 19.2485C16.6378 19.3048 16.6189 19.3664 16.6125 19.43C16.6061 19.4935 16.6123 19.5577 16.6308 19.6189C16.6492 19.6801 16.6795 19.737 16.7199 19.7865C16.7604 19.8359 16.8102 19.8769 16.8665 19.9071L17.4638 20.2279C17.0583 20.0784 16.614 20.0501 16.1695 20.1608C16.2951 19.2398 15.848 18.2947 14.9818 17.8313C14.4495 17.5466 13.837 17.4847 13.2557 17.6565C13.2513 17.4446 13.2179 17.2343 13.1563 17.0315C12.9786 16.4451 12.5848 15.964 12.0476 15.6768C11.5076 15.3882 10.9027 15.3385 10.3552 15.4911C10.3459 14.6647 9.82128 13.9774 9.19656 13.5388C9.17502 13.5222 9.15213 13.5074 9.12814 13.4946C8.19545 12.9959 7.0682 13.2115 6.37731 13.9494C6.36613 13.4435 6.43531 12.9355 6.57587 12.4383L9.35244 3.83254C10.291 3.94117 11.1595 3.76898 12.0024 3.60093C13.4039 3.32221 14.7349 3.05728 16.4548 3.99475C16.0801 4.29309 15.7033 4.63354 15.3286 5.01203C15.032 5.31199 14.727 5.61145 14.4294 5.90359C13.3446 6.96904 12.4078 7.88922 12.1399 8.54228C12.1081 8.61987 12.0968 8.70437 12.1073 8.78758C12.1177 8.87079 12.1495 8.94988 12.1996 9.01717C14.1359 11.6212 16.4824 10.7376 18.3671 10.0278C19.7801 9.49558 21.0005 9.03574 21.9726 9.80502C21.991 9.81958 22.0103 9.83273 22.0306 9.84447C22.4948 10.1135 23.1343 10.4293 23.8748 10.795C25.665 11.6792 28.1169 12.8902 28.7505 13.8532C29.1762 14.4999 29.0411 15.3951 28.6481 15.8257ZM29.4877 13.2167C28.6384 12.0649 26.2443 10.8801 24.3059 9.92287C23.5968 9.57257 22.9822 9.26917 22.5473 9.01942C21.1509 7.9402 19.5617 8.53849 18.0244 9.11744C16.2024 9.80327 14.618 10.3997 13.1708 8.67785C13.5107 8.16984 14.3225 7.37263 15.1112 6.598C15.4121 6.30248 15.7203 5.99971 16.0202 5.69659C16.54 5.17164 17.0601 4.73008 17.5672 4.38112C20.0179 2.69587 21.8346 3.45517 23.4379 4.12617C24.1876 4.44004 24.9528 4.76038 25.7097 4.76038C25.9877 4.76038 26.2643 4.70962 26.5389 4.60703L29.7073 13.1376L29.4877 13.2167ZM34.5652 13.2992L31.9254 14.2796C31.558 14.4151 31.1502 14.2282 31.0143 13.8621L27.0703 3.24262C27.0049 3.06656 27.0125 2.87446 27.0916 2.70149C27.171 2.52859 27.3116 2.39732 27.4877 2.33186L30.1275 1.35149C30.2057 1.32235 30.2884 1.3074 30.3719 1.30734C30.4729 1.30734 30.5738 1.32935 30.6689 1.37287C30.8417 1.45204 30.973 1.59281 31.0384 1.76908L34.9825 12.3883C35.1186 12.7546 34.9313 13.1631 34.5652 13.2992Z" fill="#101010"/>
<path d="M35.8947 12.0496L31.9505 1.43045C31.7946 1.01048 31.4834 0.676072 31.0744 0.488548C30.6651 0.301377 30.209 0.283799 29.789 0.43947L27.149 1.41984C26.28 1.74271 25.8354 2.71253 26.1582 3.5816L26.201 3.69691C25.5764 3.934 24.8793 3.67504 23.8138 3.22877C22.2229 2.5627 20.065 1.66832 17.3257 3.38163C15.1025 1.99781 13.3579 2.33917 11.813 2.64679C11.0282 2.80274 10.2807 2.94956 9.50874 2.86968C9.48702 2.66683 9.4314 2.46693 9.33542 2.27941C9.13018 1.87877 8.78242 1.58233 8.35632 1.44487L5.67636 0.580377C5.25006 0.442916 4.79464 0.480322 4.39414 0.685072C3.99364 0.890314 3.6972 1.23808 3.55988 1.66417L0.0813133 12.445C-0.203241 13.3274 0.28304 14.2768 1.16546 14.5613L3.84535 15.4261C4.01189 15.4801 4.18587 15.5077 4.36095 15.5078C4.62413 15.5078 4.88577 15.4451 5.12743 15.3214C5.2767 15.2449 5.40573 15.143 5.52322 15.0302C5.53974 15.1118 5.56189 15.1924 5.58186 15.2734L4.91094 16.5277C4.62322 17.066 4.56746 17.7186 4.75829 18.3181C4.94406 18.9018 5.33584 19.368 5.84968 19.6247C6.28091 19.856 6.77521 19.9421 7.25923 19.8702C7.12543 20.3139 7.12796 20.8006 7.27302 21.2566C7.45878 21.8403 7.85056 22.3067 8.36441 22.5634C8.90188 22.8508 9.52056 22.9108 10.1068 22.7335C10.3374 22.6639 10.5557 22.5586 10.7537 22.4213C10.9419 22.996 11.3306 23.4546 11.8386 23.7085C12.3759 23.9959 12.9946 24.0559 13.5809 23.8786C13.7096 23.8395 13.8348 23.7895 13.955 23.7289C14.1312 24.4366 14.6345 25.0669 15.2617 25.4024C15.5613 25.5625 15.9141 25.6658 16.2804 25.6658C16.946 25.6658 17.6557 25.3247 18.1691 24.365L18.2693 24.1777L18.3827 24.2372L18.6505 24.3768C18.9784 24.5456 19.299 24.62 19.6003 24.62C20.3522 24.62 20.9837 24.1566 21.3066 23.5413C21.5289 23.1179 21.6072 22.6144 21.4993 22.1257C21.7706 22.1398 22.0449 22.1075 22.313 22.0263C22.9151 21.8439 23.4092 21.4396 23.7042 20.888C23.9426 20.4424 24.0288 19.9422 23.957 19.4489C24.4606 19.6579 25.0175 19.6851 25.5486 19.5243C26.1559 19.3402 26.6543 18.9323 26.9519 18.376C27.1951 17.921 27.2814 17.4097 27.2041 16.9064C28.0249 17.2336 28.8168 17.084 29.3667 16.4815C29.9241 15.871 30.1116 14.9357 29.9031 14.101L30.0384 14.0524L30.0461 14.0496L30.1024 14.201C30.3539 14.8776 30.9976 15.2968 31.6804 15.2968C31.8796 15.2968 32.0772 15.2612 32.2639 15.1917L34.9037 14.2113C35.7729 13.8884 36.2174 12.9188 35.8947 12.0496ZM5.03595 14.0435C4.97816 14.2224 4.85321 14.3687 4.6839 14.4554C4.51431 14.542 4.3227 14.5579 4.14404 14.5004L1.46401 13.6354C1.0922 13.5155 0.887235 13.1155 1.00712 12.7437L4.48583 1.96286C4.54349 1.78406 4.66843 1.63774 4.83767 1.55111C4.93787 1.49941 5.04893 1.47232 5.16167 1.47208C5.23497 1.47212 5.30781 1.48365 5.37753 1.50625L8.05756 2.37088C8.23637 2.42854 8.38269 2.55349 8.46931 2.72273C8.55594 2.89204 8.5719 3.08364 8.51431 3.26259L5.73718 11.8701C5.72502 11.8936 5.71327 11.9176 5.70491 11.9436C5.68051 12.0189 5.66167 12.095 5.64022 12.1708L5.03595 14.0435ZM6.29666 18.7607C6.00781 18.6164 5.79069 18.3545 5.68543 18.0231C5.57377 17.6724 5.60422 17.2946 5.76889 16.9867L6.52686 15.5695C6.527 15.5694 6.52721 15.5692 6.52728 15.569L6.88932 14.8921C7.22661 14.2618 8.00813 14.0182 8.64235 14.3383C9.05839 14.6292 9.68241 15.2477 9.20893 16.1328L8.95095 16.6151L8.08759 18.2293C7.74502 18.8672 6.94754 19.1091 6.29666 18.7607ZM10.6034 21.166C10.4387 21.4742 10.162 21.7001 9.82438 21.8024C9.48695 21.9047 9.13124 21.8702 8.81138 21.6994C8.52254 21.5551 8.30542 21.293 8.20016 20.9617C8.0885 20.6111 8.11909 20.2333 8.28376 19.9255L8.94554 18.6884L9.80891 17.0742C9.97358 16.7662 10.2503 16.5403 10.5877 16.438C10.9253 16.3354 11.2807 16.37 11.589 16.5348C11.897 16.6995 12.123 16.9762 12.2253 17.3138C12.3276 17.6513 12.293 18.007 12.1282 18.3152L11.8857 18.7687C11.8856 18.7692 11.8852 18.7696 11.885 18.7701L10.8999 20.6116L10.8998 20.6119L10.6034 21.166ZM13.2986 22.9475C12.9609 23.0498 12.6056 23.0153 12.2856 22.8444C11.9968 22.7001 11.7798 22.4382 11.6744 22.107C11.5631 21.7567 11.5932 21.3797 11.7572 21.072L11.758 21.0706L12.743 19.229L12.7432 19.2284L12.7437 19.2275C12.9086 18.9201 13.185 18.6948 13.5219 18.5926C13.8592 18.4898 14.2149 18.5245 14.523 18.6895C15.1624 19.0316 15.4044 19.8302 15.0625 20.4696L14.57 21.3905L14.1335 22.2067L14.133 22.2076L14.0776 22.3112C13.9129 22.6191 13.6361 22.8452 13.2986 22.9475ZM15.7206 24.5445C15.0828 24.2034 14.6265 23.3478 14.9915 22.6654L15.4281 21.8492L15.4286 21.8481C15.5988 21.5308 15.9014 21.2758 16.2592 21.1488C16.6163 21.0218 16.9748 21.0387 17.269 21.1961C17.91 21.5388 18.0135 21.8387 18.0353 22.0344C18.0685 22.3304 17.9432 22.7239 17.6296 23.3103L17.629 23.3117L17.3111 23.9061C16.7727 24.9136 16.0837 24.7385 15.7206 24.5445ZM20.4451 23.0894C20.2157 23.5272 19.7096 23.8278 19.0958 23.512L18.8351 23.376C18.792 23.3532 18.7518 23.3321 18.7145 23.3126C18.9115 22.8744 19.0551 22.3983 19.0022 21.9262C18.9426 21.3939 18.6472 20.9499 18.1113 20.5755L20.0272 21.6044C20.6675 22.054 20.6653 22.67 20.4451 23.0894ZM28.6481 15.8257C28.3348 16.1691 27.9049 16.1983 27.3698 15.9118L25.9823 15.1697L25.9794 15.1683C25.9652 15.1607 25.9503 15.1564 25.9358 15.1503L21.4616 12.7217C21.226 12.5932 20.9303 12.6809 20.8021 12.9172C20.7716 12.9733 20.7525 13.0349 20.7458 13.0985C20.7391 13.162 20.745 13.2262 20.7632 13.2875C20.7814 13.3487 20.8114 13.4058 20.8516 13.4554C20.8918 13.505 20.9414 13.5463 20.9976 13.5767L25.5664 16.0568C25.8688 16.2341 26.0934 16.513 26.1968 16.8536C26.3054 17.2122 26.2689 17.5898 26.0937 17.9172C25.9187 18.2445 25.6248 18.4846 25.2663 18.5932C24.9071 18.7017 24.5297 18.6653 24.2027 18.4903L22.8232 17.7524C22.7989 17.7325 22.7727 17.7149 22.7451 17.6999L19.4158 15.9198C19.3594 15.8897 19.2977 15.8709 19.2342 15.8646C19.1706 15.8584 19.1064 15.8647 19.0453 15.8832C18.9841 15.9018 18.9272 15.9322 18.8779 15.9727C18.8285 16.0133 18.7876 16.0631 18.7575 16.1195C18.7274 16.1758 18.7086 16.2376 18.7024 16.3011C18.6961 16.3647 18.7024 16.4289 18.7209 16.49C18.7395 16.5512 18.7699 16.608 18.8104 16.6574C18.851 16.7068 18.9008 16.7477 18.9572 16.7778L22.2028 18.5132C22.2269 18.5328 22.253 18.5508 22.2814 18.566C22.604 18.7384 22.8406 19.0279 22.9476 19.3814C23.0547 19.7347 23.0186 20.1068 22.8461 20.4292C22.6736 20.7518 22.384 20.9882 22.0307 21.0955C21.6776 21.2023 21.3053 21.1664 20.9828 20.9939L20.2786 20.6173C20.2439 20.5993 20.2071 20.5855 20.1691 20.5763L17.3266 19.0501C17.0899 18.9221 16.7949 19.0116 16.668 19.2485C16.6378 19.3048 16.6189 19.3664 16.6125 19.43C16.6061 19.4935 16.6123 19.5577 16.6308 19.6189C16.6492 19.6801 16.6795 19.737 16.7199 19.7865C16.7604 19.8359 16.8102 19.8769 16.8665 19.9071L17.4638 20.2279C17.0583 20.0784 16.614 20.0501 16.1695 20.1608C16.2951 19.2398 15.848 18.2947 14.9818 17.8313C14.4495 17.5466 13.837 17.4847 13.2557 17.6565C13.2513 17.4446 13.2179 17.2343 13.1563 17.0315C12.9786 16.4451 12.5848 15.964 12.0476 15.6768C11.5076 15.3882 10.9027 15.3385 10.3552 15.4911C10.3459 14.6647 9.82128 13.9774 9.19656 13.5388C9.17502 13.5222 9.15213 13.5074 9.12814 13.4946C8.19545 12.9959 7.0682 13.2115 6.37731 13.9494C6.36613 13.4435 6.43531 12.9355 6.57587 12.4383L9.35244 3.83254C10.291 3.94117 11.1595 3.76898 12.0024 3.60093C13.4039 3.32221 14.7349 3.05728 16.4548 3.99475C16.0801 4.29309 15.7033 4.63354 15.3286 5.01203C15.032 5.31199 14.727 5.61145 14.4294 5.90359C13.3446 6.96904 12.4078 7.88922 12.1399 8.54228C12.1081 8.61987 12.0968 8.70437 12.1073 8.78758C12.1177 8.87079 12.1495 8.94988 12.1996 9.01717C14.1359 11.6212 16.4824 10.7376 18.3671 10.0278C19.7801 9.49558 21.0005 9.03574 21.9726 9.80502C21.991 9.81958 22.0103 9.83273 22.0306 9.84447C22.4948 10.1135 23.1343 10.4293 23.8748 10.795C25.665 11.6792 28.1169 12.8902 28.7505 13.8532C29.1762 14.4999 29.0411 15.3951 28.6481 15.8257ZM29.4877 13.2167C28.6384 12.0649 26.2443 10.8801 24.3059 9.92287C23.5968 9.57257 22.9822 9.26917 22.5473 9.01942C21.1509 7.9402 19.5617 8.53849 18.0244 9.11744C16.2024 9.80327 14.618 10.3997 13.1708 8.67785C13.5107 8.16984 14.3225 7.37263 15.1112 6.598C15.4121 6.30248 15.7203 5.99971 16.0202 5.69659C16.54 5.17164 17.0601 4.73008 17.5672 4.38112C20.0179 2.69587 21.8346 3.45517 23.4379 4.12617C24.1876 4.44004 24.9528 4.76038 25.7097 4.76038C25.9877 4.76038 26.2643 4.70962 26.5389 4.60703L29.7073 13.1376L29.4877 13.2167ZM34.5652 13.2992L31.9254 14.2796C31.558 14.4151 31.1502 14.2282 31.0143 13.8621L27.0703 3.24262C27.0049 3.06656 27.0125 2.87446 27.0916 2.70149C27.171 2.52859 27.3116 2.39732 27.4877 2.33186L30.1275 1.35149C30.2057 1.32235 30.2884 1.3074 30.3719 1.30734C30.4729 1.30734 30.5738 1.32935 30.6689 1.37287C30.8417 1.45204 30.973 1.59281 31.0384 1.76908L34.9825 12.3883C35.1186 12.7546 34.9313 13.1631 34.5652 13.2992Z" stroke="#101010" stroke-width="0.4" mask="url(#path-1-outside-1_54_6759)"/>
</svg>
