<svg width="36" height="36" viewBox="0 0 36 36" fill="none" xmlns="http://www.w3.org/2000/svg">
<g clip-path="url(#clip0_54_6761)">
<path d="M5.00831 17.1952C4.91986 17.8342 5.00345 18.4852 5.25046 19.0811C5.49746 19.677 5.89895 20.1962 6.41351 20.5852C6.84925 20.9152 7.1612 21.3823 7.29911 21.9112C7.43341 22.4199 7.67701 22.8933 8.01296 23.2982C8.34891 23.7032 8.76912 24.03 9.24431 24.256L6.14711 31.36C6.02857 31.6415 5.98154 31.9479 6.01022 32.252C6.03891 32.556 6.14241 32.8483 6.31149 33.1026C6.48058 33.357 6.70999 33.5655 6.97926 33.7096C7.24853 33.8537 7.54929 33.929 7.85471 33.9286H10.4305C10.4627 33.9282 10.4947 33.9344 10.5245 33.9467C10.5543 33.9589 10.5813 33.9771 10.6039 34L12.0661 35.4598C12.2793 35.6719 12.5407 35.829 12.828 35.9177C13.1153 36.0064 13.4199 36.0239 13.7155 35.9688C14.0111 35.9138 14.2889 35.7877 14.525 35.6015C14.7611 35.4154 14.9484 35.1746 15.0709 34.9L18.0001 28.4506L20.9257 34.891C21.0471 35.167 21.2339 35.4092 21.4699 35.5967C21.7059 35.7843 21.9841 35.9115 22.2804 35.9674C22.5766 36.0233 22.882 36.0062 23.1702 35.9175C23.4583 35.8289 23.7205 35.6714 23.9341 35.4586L25.3969 33.9994C25.443 33.9541 25.5051 33.9286 25.5697 33.9286H28.1449C28.451 33.929 28.7523 33.8535 29.0221 33.7088C29.2918 33.5642 29.5214 33.3549 29.6904 33.0998C29.8594 32.8446 29.9625 32.5515 29.9905 32.2468C30.0185 31.942 29.9705 31.6351 29.8507 31.3534L26.7559 24.2566C27.2315 24.0298 27.652 23.7021 27.9881 23.2963C28.3242 22.8906 28.568 22.4165 28.7023 21.907C28.8406 21.3802 29.1521 20.9153 29.5867 20.587C30.1011 20.198 30.5024 19.6788 30.7493 19.083C30.9962 18.4873 31.0797 17.8364 30.9913 17.1976V17.1808C30.9227 16.6437 31.0332 16.0989 31.3057 15.631C31.6306 15.0745 31.8014 14.4415 31.8007 13.7971C31.7999 13.1527 31.6276 12.5202 31.3015 11.9644C31.0306 11.4994 30.9211 10.9579 30.9901 10.4242C30.9915 10.4179 30.9925 10.4114 30.9931 10.405C31.0816 9.76617 30.9981 9.11531 30.7512 8.51952C30.5043 7.92373 30.1029 7.40458 29.5885 7.01559C29.1531 6.68565 28.8414 6.2188 28.7035 5.69019C28.5401 5.06681 28.2136 4.49818 27.7577 4.04275C27.3017 3.58732 26.7327 3.26151 26.1091 3.09879C25.5822 2.96071 25.1172 2.64916 24.7891 2.21439C24.4003 1.69899 23.8808 1.297 23.2842 1.05012C22.6877 0.803238 22.036 0.720468 21.3967 0.810394C20.854 0.884756 20.3021 0.773991 19.8301 0.495994C19.2737 0.171043 18.6407 0.000101486 17.9963 0.000734172C17.3519 0.00136686 16.7193 0.173551 16.1635 0.499594C15.6927 0.774223 15.1434 0.882827 14.6035 0.807994C13.9646 0.720244 13.3138 0.804156 12.718 1.05111C12.1223 1.29806 11.603 1.69916 11.2135 2.21319C10.8836 2.64878 10.4168 2.96072 9.88811 3.09879C9.26474 3.26206 8.69611 3.5884 8.24066 4.04427C7.78522 4.50014 7.4594 5.06908 7.29671 5.69259C7.15824 6.2193 6.84676 6.68419 6.41231 7.01259C5.89766 7.40178 5.49617 7.92123 5.24927 8.51736C5.00236 9.11348 4.91897 9.76469 5.00771 10.4038C5.08201 10.9455 4.97191 11.4965 4.69511 11.968C4.37034 12.5245 4.1995 13.1574 4.20014 13.8018C4.20077 14.4461 4.37285 15.0787 4.69871 15.6346C4.9742 16.1053 5.08325 16.655 5.00831 17.1952ZM13.9753 34.4098C13.9321 34.5069 13.866 34.5921 13.7826 34.658C13.6992 34.7239 13.6011 34.7685 13.4966 34.7881C13.3921 34.8077 13.2845 34.8017 13.1829 34.7705C13.0813 34.7393 12.9888 34.6838 12.9133 34.609L11.4517 33.151C11.3178 33.0171 11.1588 32.9111 10.9837 32.839C10.8086 32.7669 10.621 32.7302 10.4317 32.731H7.85471C7.74667 32.7319 7.64014 32.7056 7.54486 32.6547C7.44958 32.6037 7.3686 32.5297 7.30931 32.4394C7.24978 32.3517 7.21312 32.2504 7.20264 32.1449C7.19216 32.0394 7.2082 31.9329 7.24931 31.8352L10.3645 24.6892C10.6974 24.8543 10.9878 25.0937 11.2135 25.3888C11.6021 25.9037 12.1212 26.3054 12.7171 26.5523C13.313 26.7993 13.964 26.8825 14.6029 26.7934H14.6197C15.157 26.7228 15.7024 26.8337 16.1695 27.1084C16.466 27.2808 16.7857 27.4099 17.1187 27.4918L13.9753 34.4098ZM28.7479 31.8262C28.7887 31.925 28.8045 32.0323 28.794 32.1386C28.7835 32.245 28.747 32.3471 28.6877 32.436C28.6284 32.525 28.5482 32.5979 28.454 32.6485C28.3599 32.6991 28.2548 32.7258 28.1479 32.7262H25.5697C25.1877 32.7267 24.8213 32.8776 24.5497 33.1462L23.0875 34.6048C23.0115 34.6801 22.9183 34.7357 22.816 34.7667C22.7136 34.7978 22.6052 34.8034 22.5002 34.7831C22.3952 34.7627 22.2967 34.717 22.2134 34.65C22.13 34.583 22.0643 34.4966 22.0219 34.3984L18.8803 27.4864C19.2161 27.4035 19.5383 27.2732 19.8373 27.0994C20.302 26.8271 20.8442 26.7177 21.3781 26.7886H21.3955C22.0345 26.8785 22.6859 26.7957 23.2821 26.5487C23.8782 26.3017 24.3974 25.8995 24.7855 25.384C25.011 25.0889 25.3015 24.8499 25.6345 24.6856L28.7479 31.8262ZM5.73551 12.5692C6.14611 11.8658 6.30879 11.045 6.19751 10.2382C6.13867 9.81066 6.19501 9.37516 6.36071 8.97668C6.52641 8.57819 6.79547 8.23115 7.14011 7.97139C7.79088 7.47851 8.25705 6.78116 8.46371 5.99139C8.57296 5.575 8.79103 5.19516 9.09554 4.89086C9.40005 4.58656 9.78004 4.36876 10.1965 4.25979C10.9843 4.0534 11.6801 3.58858 12.1723 2.93979C12.432 2.59474 12.7794 2.32558 13.1784 2.16033C13.5773 1.99508 14.0133 1.93979 14.4409 2.00019C15.2495 2.1099 16.0715 1.94601 16.7761 1.53459C17.1487 1.31721 17.5725 1.20296 18.0039 1.20359C18.4353 1.20422 18.8587 1.31971 19.2307 1.53819C19.9338 1.94958 20.7549 2.11232 21.5617 2.00019C21.989 1.94089 22.4243 1.99671 22.8228 2.16189C23.2213 2.32706 23.5685 2.59561 23.8285 2.93979C24.3214 3.59056 25.0188 4.05673 25.8085 4.26339C26.2249 4.37259 26.6048 4.59064 26.9091 4.89516C27.2134 5.19968 27.4312 5.57969 27.5401 5.99619C27.7466 6.78396 28.2114 7.47968 28.8601 7.97199C29.2018 8.23035 29.469 8.57457 29.6346 8.96966C29.8001 9.36475 29.8581 9.79662 29.8027 10.2214C29.8027 10.228 29.8027 10.2346 29.7997 10.2406C29.6889 11.0491 29.8527 11.8714 30.2647 12.5758C30.4822 12.947 30.5968 13.3695 30.5968 13.7998C30.5968 14.2301 30.4822 14.6525 30.2647 15.0238V15.0304C29.8545 15.733 29.6918 16.553 29.8027 17.359V17.3752C29.8589 17.8005 29.8013 18.2332 29.6357 18.629C29.4701 19.0248 29.2025 19.3696 28.8601 19.6282C28.2106 20.1215 27.7457 20.8189 27.5401 21.6082C27.4306 22.025 27.2119 22.4052 26.9068 22.7095C26.6016 23.0138 26.2209 23.2314 25.8037 23.3398C25.0159 23.5461 24.3201 24.0109 23.8279 24.6598C23.5692 25.0014 23.2247 25.2685 22.8295 25.4339C22.4342 25.5993 22.0022 25.6573 21.5773 25.6018H21.5587C20.7502 25.4914 19.9281 25.6552 19.2235 26.0668C18.8515 26.2852 18.4279 26.4003 17.9965 26.4003C17.5651 26.4003 17.1416 26.2852 16.7695 26.0668C16.2129 25.7417 15.5799 25.5705 14.9353 25.5706C14.7699 25.5706 14.6047 25.5821 14.4409 25.6048H14.4247C13.9991 25.6608 13.5663 25.6028 13.1705 25.4368C12.7746 25.2708 12.43 25.0026 12.1717 24.6598C11.6781 24.0105 10.9809 23.5457 10.1917 23.3398C9.77488 23.2302 9.39474 23.0116 9.09041 22.7064C8.78607 22.4013 8.56852 22.0205 8.46011 21.6034C8.2538 20.8156 7.78897 20.1198 7.14011 19.6276C6.79573 19.3673 6.52707 19.0198 6.36189 18.621C6.19671 18.2222 6.141 17.7865 6.20051 17.359C6.31125 16.5504 6.14729 15.7281 5.73491 15.0238C5.51695 14.6515 5.40211 14.2278 5.40222 13.7964C5.40232 13.365 5.51737 12.9414 5.73551 12.5692Z" fill="#101010"/>
<path d="M18 23.9996C20.0174 23.9996 21.9895 23.4014 23.6669 22.2806C25.3442 21.1598 26.6516 19.5668 27.4236 17.703C28.1956 15.8392 28.3976 13.7883 28.0041 11.8097C27.6105 9.83109 26.639 8.01362 25.2125 6.58713C23.786 5.16063 21.9686 4.18917 19.99 3.7956C18.0114 3.40203 15.9605 3.60403 14.0967 4.37604C12.2329 5.14806 10.6398 6.45542 9.51906 8.1328C8.39827 9.81018 7.80005 11.7822 7.80005 13.7996C7.80307 16.5039 8.87868 19.0966 10.7909 21.0088C12.7031 22.921 15.2958 23.9966 18 23.9996ZM18 4.79961C19.7801 4.79961 21.5201 5.32745 23.0002 6.31639C24.4802 7.30532 25.6338 8.71093 26.315 10.3555C26.9962 12 27.1744 13.8096 26.8271 15.5554C26.4799 17.3013 25.6227 18.9049 24.364 20.1636C23.1053 21.4222 21.5017 22.2794 19.7559 22.6267C18.01 22.9739 16.2004 22.7957 14.5559 22.1145C12.9114 21.4333 11.5058 20.2798 10.5168 18.7997C9.52789 17.3197 9.00005 15.5796 9.00005 13.7996C9.00275 11.4135 9.95183 9.12588 11.6391 7.43863C13.3263 5.75139 15.6139 4.80231 18 4.79961Z" fill="#101010"/>
<path d="M14.3268 18.6724C14.668 19.003 15.1245 19.1879 15.5997 19.1879C16.0748 19.1879 16.5313 19.003 16.8726 18.6724L22.8726 12.6724C23.2016 12.3304 23.3855 11.8742 23.3855 11.3995C23.3855 10.9249 23.2016 10.4687 22.8726 10.1266C22.535 9.78918 22.0773 9.59961 21.6 9.59961C21.1227 9.59961 20.6649 9.78918 20.3274 10.1266L15.6 14.8564C15.2502 14.5454 14.7931 14.3829 14.3255 14.4033C13.8579 14.4236 13.4167 14.6253 13.0953 14.9656C12.7739 15.3058 12.5977 15.7579 12.604 16.2259C12.6104 16.6939 12.7987 17.141 13.1292 17.4724L14.3268 18.6724ZM13.9758 15.775C14.0892 15.6643 14.2414 15.6023 14.4 15.6023C14.5585 15.6023 14.7108 15.6643 14.8242 15.775L15.1758 16.1266C15.2883 16.2391 15.4409 16.3023 15.6 16.3023C15.7591 16.3023 15.9117 16.2391 16.0242 16.1266L21.1758 10.9756C21.2311 10.9183 21.2973 10.8726 21.3705 10.8412C21.4437 10.8097 21.5225 10.7932 21.6021 10.7925C21.6818 10.7918 21.7608 10.807 21.8345 10.8371C21.9083 10.8673 21.9753 10.9119 22.0316 10.9682C22.0879 11.0245 22.1325 11.0915 22.1627 11.1653C22.1928 11.239 22.208 11.318 22.2073 11.3977C22.2066 11.4773 22.1901 11.5561 22.1586 11.6293C22.1272 11.7025 22.0815 11.7687 22.0242 11.824L16.0242 17.824C15.9098 17.933 15.7579 17.9937 15.6 17.9937C15.442 17.9937 15.2901 17.933 15.1758 17.824L13.9758 16.624C13.8667 16.5096 13.8058 16.3576 13.8058 16.1995C13.8058 16.0414 13.8667 15.8894 13.9758 15.775Z" fill="#101010"/>
</g>
<defs>
<clipPath id="clip0_54_6761">
<rect width="36" height="36" fill="white"/>
</clipPath>
</defs>
</svg>
