<svg width="36" height="36" viewBox="0 0 36 36" fill="none" xmlns="http://www.w3.org/2000/svg">
<path d="M32.3999 6.48003C32.3975 6.332 32.3496 6.18828 32.2627 6.06845C32.1757 5.94863 32.0539 5.85853 31.9139 5.81043L18.2339 1.13043C18.0826 1.07631 17.9172 1.07631 17.7659 1.13043L4.08588 5.81043C3.94585 5.85853 3.82406 5.94863 3.73709 6.06845C3.65012 6.18828 3.60221 6.332 3.59988 6.48003L3.56388 8.60403C3.45588 15.1452 3.98508 19.8396 5.18748 22.9608C6.08903 25.311 7.44855 27.4585 9.18708 29.2788C11.2668 31.3939 13.7314 33.0923 16.4483 34.2828L17.7011 34.8552C17.7949 34.898 17.8968 34.9202 17.9999 34.9202C18.103 34.9202 18.2049 34.898 18.2987 34.8552L19.5515 34.2828C22.2684 33.0923 24.7329 31.3939 26.8127 29.2788C28.5529 27.4578 29.9137 25.3089 30.8159 22.9572C32.0183 19.836 32.5475 15.1416 32.4395 8.60043L32.3999 6.48003ZM29.4731 22.4388C28.64 24.6141 27.3819 26.6016 25.7723 28.2852C23.8174 30.2626 21.5049 31.8507 18.9575 32.9652L17.9999 33.408L17.0423 32.9724C14.4949 31.8579 12.1823 30.2698 10.2275 28.2924C8.61702 26.6066 7.35889 24.6166 6.52668 22.4388C5.39988 19.494 4.89228 14.976 5.00028 8.64003L5.02548 7.02003L17.9999 2.55963L30.9599 7.00563L30.9851 8.62563C31.1075 14.976 30.5999 19.494 29.4731 22.4388Z" fill="#101010"/>
<path d="M28.8001 8.99997C28.7985 8.85132 28.7509 8.7068 28.6639 8.58626C28.5769 8.46572 28.4547 8.37508 28.3141 8.32677L18.2341 4.87077C18.0822 4.82026 17.918 4.82026 17.7661 4.87077L7.68606 8.32677C7.54546 8.37508 7.42327 8.46572 7.33625 8.58626C7.24923 8.7068 7.20166 8.85132 7.20006 8.99997V9.06837C7.10286 14.778 7.56006 19.1268 8.53566 21.6468C9.24916 23.5144 10.3287 25.2206 11.7109 26.6652C13.4149 28.3972 15.4333 29.7889 17.6581 30.7656L17.7013 30.7836C17.7941 30.8294 17.8965 30.8528 18.0001 30.852C18.1032 30.852 18.205 30.8299 18.2989 30.7872L18.3421 30.7656C20.5683 29.7939 22.5891 28.4072 24.2965 26.6796C25.6786 25.235 26.7582 23.5288 27.4717 21.6612C28.4401 19.1412 28.9117 14.7924 28.8073 9.08637L28.8001 8.99997ZM26.1181 21.132C25.4694 22.8205 24.4903 24.3626 23.2381 25.668C21.7321 27.202 19.9565 28.4455 18.0001 29.3364C16.0384 28.4518 14.2566 27.2131 12.7441 25.6824C11.4918 24.377 10.5127 22.8349 9.86406 21.1464C9.00006 18.8568 8.56086 14.8536 8.64006 9.53997L18.0001 6.32877L27.3601 9.53997C27.4393 14.85 27.0001 18.8568 26.1253 21.1464L26.1181 21.132Z" fill="#101010"/>
<path d="M21.3807 14.5189L16.2471 19.6525L14.6199 18.0253C14.553 17.9584 14.4736 17.9053 14.3862 17.8691C14.2988 17.8329 14.2051 17.8143 14.1105 17.8143C14.0159 17.8143 13.9222 17.8329 13.8348 17.8691C13.7474 17.9053 13.668 17.9584 13.6011 18.0253C13.5342 18.0922 13.4811 18.1716 13.4449 18.259C13.4087 18.3464 13.3901 18.4401 13.3901 18.5347C13.3901 18.6293 13.4087 18.7229 13.4449 18.8103C13.4811 18.8977 13.5342 18.9772 13.6011 19.0441L15.7359 21.1789C15.8029 21.2462 15.8825 21.2997 15.9702 21.3362C16.058 21.3726 16.1521 21.3913 16.2471 21.3913C16.4377 21.3905 16.6203 21.3141 16.7547 21.1789L22.3995 15.5377C22.4664 15.4708 22.5194 15.3913 22.5556 15.3039C22.5918 15.2165 22.6105 15.1229 22.6105 15.0283C22.6105 14.9337 22.5918 14.84 22.5556 14.7526C22.5194 14.6652 22.4664 14.5858 22.3995 14.5189C22.3326 14.452 22.2532 14.3989 22.1658 14.3627C22.0784 14.3265 21.9847 14.3079 21.8901 14.3079C21.7955 14.3079 21.7018 14.3265 21.6144 14.3627C21.527 14.3989 21.4476 14.452 21.3807 14.5189Z" fill="#101010"/>
</svg>
