<svg width="38" height="38" viewBox="0 0 38 38" fill="none" xmlns="http://www.w3.org/2000/svg">
<rect width="38" height="38" rx="19" fill="#B2F042"/>
<path d="M26.13 10.4853L18.9706 17.6447L11.8111 10.4853C11.445 10.1192 10.8514 10.1192 10.4853 10.4853C10.1192 10.8514 10.1192 11.445 10.4853 11.8111L17.6447 18.9706L10.4853 26.13C10.1192 26.4961 10.1192 27.0897 10.4853 27.4558C10.8514 27.822 11.445 27.822 11.8111 27.4558L18.9706 20.2964L26.13 27.4558C26.4961 27.822 27.0897 27.822 27.4558 27.4558C27.822 27.0897 27.822 26.4961 27.4558 26.13L20.2964 18.9706L27.4558 11.8111C27.822 11.445 27.822 10.8514 27.4558 10.4853C27.0897 10.1192 26.4961 10.1192 26.13 10.4853Z" fill="#101010"/>
</svg>
