<svg width="24" height="24" viewBox="0 0 24 24" fill="none" xmlns="http://www.w3.org/2000/svg">
<g clip-path="url(#clip0_54_6863)">
<path d="M19.1594 3.51472L12 10.6742L4.84053 3.51472C4.4744 3.14859 3.88083 3.14859 3.5147 3.51472C3.14857 3.88085 3.14857 4.47442 3.5147 4.84054L10.6742 12L3.5147 19.1595C3.14857 19.5256 3.14857 20.1192 3.5147 20.4853C3.88083 20.8514 4.4744 20.8514 4.84053 20.4853L12 13.3258L19.1594 20.4853C19.5256 20.8514 20.1191 20.8514 20.4853 20.4853C20.8514 20.1192 20.8514 19.5256 20.4853 19.1595L13.3258 12L20.4853 4.84054C20.8514 4.47442 20.8514 3.88085 20.4853 3.51472C20.1191 3.14859 19.5256 3.14859 19.1594 3.51472Z" fill="#E55733"/>
</g>
<defs>
<clipPath id="clip0_54_6863">
<rect width="24" height="24" fill="white"/>
</clipPath>
</defs>
</svg>
