<svg width="81" height="80" viewBox="0 0 81 80" fill="none" xmlns="http://www.w3.org/2000/svg">
<path fill-rule="evenodd" clip-rule="evenodd" d="M49.1977 9.54402C49.3116 9.96921 49.4012 10.3952 49.4673 10.8205C51.0078 8.90855 53.1471 7.45051 55.7003 6.76636C62.1019 5.05106 68.682 8.85005 70.3973 15.2516C71.3945 18.9732 70.528 22.7551 68.3699 25.6064C73.5673 25.7188 78.2829 29.2264 79.6962 34.5008C81.4115 40.9024 77.6125 47.4824 71.2109 49.1977C70.7857 49.3117 70.3597 49.4013 69.9344 49.4674C71.8464 51.0079 73.3044 53.1471 73.9886 55.7004C75.7039 62.102 71.9049 68.682 65.5033 70.3973C60.6629 71.6943 55.7204 69.8386 52.8561 66.089C53.6392 71.9748 49.9527 77.6699 44.0634 79.248C37.6618 80.9633 31.0818 77.1643 29.3665 70.7627C29.3589 70.7342 29.3514 70.7058 29.344 70.6774C28.0545 71.7462 26.5194 72.5608 24.7957 73.0227C18.3941 74.738 11.8141 70.939 10.0988 64.5374C9.10155 60.8158 9.96803 57.0339 12.1261 54.1826C6.92876 54.0703 2.21311 50.5626 0.799847 45.2883C-0.915454 38.8867 2.88354 32.3066 9.28513 30.5913C9.48414 30.538 9.68333 30.49 9.88254 30.4472C8.43323 29.0047 7.33365 27.172 6.76629 25.0546C5.05099 18.653 8.84998 12.0729 15.2516 10.3576C18.9732 9.36045 22.755 10.2269 25.6064 12.385C25.7187 7.18765 29.2264 2.47201 34.5007 1.05874C40.9023 -0.656563 47.4824 3.14243 49.1977 9.54402Z" fill="#EEF1F4"/>
</svg>
