<svg width="111" height="20" viewBox="0 0 111 20" fill="none" xmlns="http://www.w3.org/2000/svg">
<path d="M13.5352 6.04071H9.93729C9.88932 5.67133 9.79098 5.33792 9.64227 5.0405C9.49356 4.74308 9.29688 4.48883 9.05222 4.27776C8.80757 4.06668 8.51734 3.90598 8.18154 3.79564C7.85053 3.68051 7.48355 3.62294 7.08059 3.62294C6.36582 3.62294 5.74938 3.79804 5.23129 4.14823C4.718 4.49842 4.32223 5.00452 4.044 5.66653C3.77056 6.32854 3.63384 7.12966 3.63384 8.0699C3.63384 9.04852 3.77296 9.86883 4.05119 10.5308C4.33422 11.188 4.72999 11.6846 5.23849 12.0204C5.75178 12.3514 6.35862 12.5169 7.059 12.5169C7.45237 12.5169 7.80976 12.4665 8.13117 12.3657C8.45737 12.265 8.7428 12.1187 8.98746 11.9268C9.23691 11.7301 9.44079 11.4927 9.5991 11.2144C9.7622 10.9314 9.87493 10.6124 9.93729 10.2574L13.5352 10.279C13.4728 10.9314 13.2833 11.5742 12.9667 12.2074C12.6549 12.8407 12.2255 13.4187 11.6787 13.9416C11.1318 14.4597 10.465 14.8723 9.67825 15.1793C8.89631 15.4863 7.99925 15.6398 6.98705 15.6398C5.65344 15.6398 4.45895 15.3472 3.40358 14.7619C2.353 14.1719 1.52309 13.3132 0.913857 12.1859C0.304619 11.0585 0 9.68654 0 8.0699C0 6.44847 0.309416 5.07408 0.928248 3.94675C1.54708 2.81942 2.38418 1.96313 3.43956 1.37788C4.49493 0.792626 5.67743 0.5 6.98705 0.5C7.87932 0.5 8.70443 0.624726 9.46238 0.874178C10.2203 1.11883 10.8871 1.47862 11.4628 1.95354C12.0384 2.42366 12.5062 3.00171 12.866 3.68771C13.2257 4.3737 13.4488 5.15803 13.5352 6.04071Z" fill="#B2F042"/>
<path d="M15.5733 15.4383V4.38569H18.9913V6.40049H19.1064C19.3079 5.67133 19.6365 5.12925 20.0923 4.77426C20.548 4.41447 21.0781 4.23458 21.6825 4.23458C21.8456 4.23458 22.0135 4.24657 22.1862 4.27056C22.3589 4.28975 22.5196 4.32093 22.6683 4.3641V7.42229C22.5004 7.36472 22.2798 7.31915 22.0063 7.28557C21.7377 7.25199 21.4978 7.2352 21.2867 7.2352C20.8694 7.2352 20.4928 7.32874 20.157 7.51583C19.826 7.69812 19.5646 7.95477 19.3727 8.28577C19.1856 8.61198 19.0921 8.99575 19.0921 9.43709V15.4383H15.5733Z" fill="#B2F042"/>
<path d="M26.59 19.5831C26.1678 19.5831 25.7697 19.5495 25.3955 19.4823C25.0213 19.42 24.6999 19.336 24.4313 19.2305L25.2084 16.676C25.5538 16.7911 25.8656 16.8583 26.1439 16.8775C26.4269 16.8967 26.6691 16.8511 26.8706 16.7407C27.0769 16.6352 27.2352 16.4457 27.3455 16.1723L27.4823 15.8413L23.5534 4.38569H27.2376L29.274 12.2722H29.3891L31.4543 4.38569H35.1601L30.9938 16.4961C30.7923 17.1005 30.5069 17.633 30.1375 18.0935C29.7729 18.5589 29.3004 18.9235 28.7199 19.1873C28.1443 19.4511 27.4343 19.5831 26.59 19.5831Z" fill="#B2F042"/>
<path d="M36.5093 19.5831V4.38569H39.992V6.27817H40.1C40.2439 5.94237 40.4478 5.61856 40.7116 5.30674C40.9802 4.99493 41.3208 4.74068 41.7334 4.544C42.1507 4.34252 42.6497 4.24178 43.2301 4.24178C43.9977 4.24178 44.7148 4.44326 45.3816 4.84622C46.0532 5.24918 46.5953 5.87041 47.0079 6.70991C47.4204 7.54941 47.6267 8.61917 47.6267 9.9192C47.6267 11.1713 47.4276 12.2194 47.0294 13.0637C46.6361 13.908 46.1036 14.5413 45.432 14.9634C44.7652 15.3856 44.024 15.5966 43.2085 15.5966C42.6521 15.5966 42.1699 15.5055 41.7622 15.3232C41.3544 15.1409 41.0114 14.901 40.7332 14.6036C40.4598 14.3062 40.2487 13.9872 40.1 13.6466H40.028V19.5831H36.5093ZM39.9561 9.91201C39.9561 10.5069 40.0352 11.0249 40.1935 11.4663C40.3566 11.9076 40.5893 12.2506 40.8915 12.4953C41.1985 12.7351 41.5655 12.8551 41.9924 12.8551C42.4242 12.8551 42.7912 12.7351 43.0934 12.4953C43.3956 12.2506 43.6235 11.9076 43.777 11.4663C43.9353 11.0249 44.0144 10.5069 44.0144 9.91201C44.0144 9.31716 43.9353 8.80147 43.777 8.36493C43.6235 7.92839 43.3956 7.59019 43.0934 7.35033C42.796 7.11047 42.429 6.99054 41.9924 6.99054C41.5607 6.99054 41.1937 7.10807 40.8915 7.34313C40.5893 7.57819 40.3566 7.91399 40.1935 8.35053C40.0352 8.78708 39.9561 9.30757 39.9561 9.91201Z" fill="#B2F042"/>
<path d="M55.7093 4.38569V6.97615H48.7366V4.38569H55.7093ZM50.1974 1.73766H53.7161V11.9628C53.7161 12.1787 53.7497 12.3538 53.8168 12.4881C53.8888 12.6176 53.9919 12.7111 54.1262 12.7687C54.2606 12.8215 54.4213 12.8479 54.6083 12.8479C54.7427 12.8479 54.8842 12.8359 55.0329 12.8119C55.1864 12.7831 55.3015 12.7591 55.3783 12.7399L55.9108 15.28C55.7429 15.328 55.5054 15.388 55.1984 15.4599C54.8962 15.5319 54.534 15.5774 54.1118 15.5966C53.2867 15.635 52.5792 15.5391 51.9891 15.3088C51.4039 15.0737 50.9553 14.7092 50.6435 14.215C50.3365 13.7209 50.1878 13.0997 50.1974 12.3514V1.73766Z" fill="#B2F042"/>
<path d="M62.5452 15.647C61.3843 15.647 60.3865 15.4095 59.5518 14.9346C58.7219 14.4549 58.0815 13.7881 57.6306 12.9342C57.1844 12.0755 56.9613 11.0801 56.9613 9.94798C56.9613 8.81106 57.1844 7.81565 57.6306 6.96176C58.0815 6.10307 58.7219 5.43627 59.5518 4.96135C60.3865 4.48163 61.3843 4.24178 62.5452 4.24178C63.7061 4.24178 64.7015 4.48163 65.5315 4.96135C66.3662 5.43627 67.0066 6.10307 67.4527 6.96176C67.9036 7.81565 68.1291 8.81106 68.1291 9.94798C68.1291 11.0801 67.9036 12.0755 67.4527 12.9342C67.0066 13.7881 66.3662 14.4549 65.5315 14.9346C64.7015 15.4095 63.7061 15.647 62.5452 15.647ZM62.5668 12.9918C62.989 12.9918 63.3464 12.8623 63.639 12.6032C63.9316 12.3442 64.1547 11.9844 64.3082 11.5238C64.4665 11.0633 64.5456 10.5308 64.5456 9.9264C64.5456 9.31236 64.4665 8.77508 64.3082 8.31456C64.1547 7.85403 63.9316 7.49424 63.639 7.2352C63.3464 6.97615 62.989 6.84663 62.5668 6.84663C62.1303 6.84663 61.7609 6.97615 61.4587 7.2352C61.1613 7.49424 60.9334 7.85403 60.7751 8.31456C60.6216 8.77508 60.5448 9.31236 60.5448 9.9264C60.5448 10.5308 60.6216 11.0633 60.7751 11.5238C60.9334 11.9844 61.1613 12.3442 61.4587 12.6032C61.7609 12.8623 62.1303 12.9918 62.5668 12.9918Z" fill="#B2F042"/>
<path d="M69.9316 0.70148H74.3426L78.0844 9.82566H78.2571L81.9989 0.70148H86.4098V15.4383H82.9415V6.3861H82.8192L79.2789 15.3448H77.0626L73.5223 6.33573H73.4V15.4383H69.9316V0.70148Z" fill="#B2F042"/>
<path d="M91.7473 15.6254C91.0421 15.6254 90.4161 15.5079 89.8692 15.2728C89.3271 15.033 88.8978 14.6732 88.5812 14.1935C88.2693 13.709 88.1134 13.1021 88.1134 12.3729C88.1134 11.7589 88.2214 11.2408 88.4372 10.8187C88.6531 10.3965 88.9505 10.0535 89.3295 9.78968C89.7085 9.52584 90.145 9.32675 90.6391 9.19243C91.1332 9.05332 91.6609 8.95977 92.2222 8.9118C92.8506 8.85423 93.3567 8.79427 93.7405 8.73191C94.1243 8.66475 94.4025 8.5712 94.5752 8.45127C94.7527 8.32655 94.8414 8.15145 94.8414 7.92599V7.89001C94.8414 7.52063 94.7143 7.2352 94.4601 7.03372C94.2058 6.83224 93.8628 6.7315 93.4311 6.7315C92.9658 6.7315 92.5916 6.83224 92.3085 7.03372C92.0255 7.2352 91.8456 7.51343 91.7689 7.86842L88.5236 7.75329C88.6195 7.08169 88.8666 6.48205 89.2647 5.95436C89.6677 5.42188 90.2194 5.00452 90.9198 4.7023C91.6249 4.39529 92.4716 4.24178 93.4599 4.24178C94.165 4.24178 94.815 4.32573 95.4099 4.49363C96.0047 4.65673 96.5228 4.89659 96.9642 5.2132C97.4055 5.52501 97.7461 5.90879 97.986 6.36451C98.2306 6.82024 98.353 7.34073 98.353 7.92599V15.4383H95.0429V13.8984H94.9566C94.7599 14.2726 94.508 14.5892 94.201 14.8483C93.8988 15.1073 93.5414 15.3016 93.1289 15.4311C92.7211 15.5606 92.2606 15.6254 91.7473 15.6254ZM92.8338 13.3228C93.2128 13.3228 93.5534 13.246 93.8556 13.0925C94.1626 12.939 94.4073 12.7279 94.5896 12.4593C94.7719 12.1859 94.863 11.8692 94.863 11.5095V10.4589C94.7623 10.5117 94.64 10.5596 94.496 10.6028C94.3569 10.646 94.2034 10.6867 94.0355 10.7251C93.8676 10.7635 93.6949 10.7971 93.5174 10.8259C93.3399 10.8546 93.1696 10.881 93.0065 10.905C92.6755 10.9578 92.3925 11.0393 92.1574 11.1497C91.9272 11.26 91.7497 11.4039 91.6249 11.5814C91.505 11.7541 91.4451 11.9604 91.4451 12.2002C91.4451 12.5648 91.5746 12.8431 91.8336 13.035C92.0975 13.2268 92.4309 13.3228 92.8338 13.3228Z" fill="#B2F042"/>
<path d="M103.498 4.38569L105.318 8.02673L107.204 4.38569H110.751L107.664 9.91201L110.866 15.4383H107.348L105.318 11.7685L103.34 15.4383H99.7705L102.98 9.91201L99.9288 4.38569H103.498Z" fill="#B2F042"/>
</svg>
