<svg width="36" height="36" viewBox="0 0 36 36" fill="none" xmlns="http://www.w3.org/2000/svg">
<path d="M6.30924 15.965L6.30924 15.965C6.46552 15.8097 6.65176 15.6879 6.85662 15.6069C7.06149 15.5259 7.28069 15.4874 7.50089 15.4938L7.50127 15.4938L15.993 15.7734C16.307 15.7837 16.6112 15.8856 16.868 16.0666C17.1248 16.2475 17.3232 16.4996 17.4386 16.7918C17.554 17.084 17.5815 17.4036 17.5176 17.7112C17.4537 18.0188 17.3013 18.301 17.0792 18.5231C17.0792 18.5231 17.0791 18.5231 17.0791 18.5231L15.3724 20.2299L22.015 26.8726L6.30924 15.965ZM6.30924 15.965L6.30893 15.9653C6.15329 16.1213 6.03121 16.3075 5.95021 16.5125C5.86921 16.7174 5.831 16.9368 5.83793 17.157L5.83794 17.1572L6.1175 25.649L6.1175 25.649C6.12789 25.9629 6.22981 26.267 6.41074 26.5237C6.59166 26.7805 6.8437 26.9788 7.13584 27.0942C7.42798 27.2096 7.74748 27.2371 8.05504 27.1733C8.3626 27.1095 8.6448 26.9572 8.86693 26.7351L10.574 25.0283M6.30924 15.965L10.574 25.0283M10.574 25.0283L17.2167 31.6712L10.574 25.0283ZM17.4087 31.7997C17.3369 31.7699 17.2717 31.7263 17.2167 31.6713L17.4087 31.7997ZM17.4087 31.7997C17.4806 31.8295 17.5576 31.8448 17.6354 31.8448M17.4087 31.7997L17.6354 31.8448M17.6354 31.8448C17.7131 31.8448 17.7901 31.8295 17.862 31.7997M17.6354 31.8448L17.862 31.7997M17.862 31.7997C17.9338 31.7699 17.999 31.7263 18.054 31.6713L17.862 31.7997ZM16.3414 17.2253L16.3374 17.2269C16.3689 17.304 16.3768 17.3888 16.3599 17.4703C16.343 17.5519 16.3021 17.6266 16.2425 17.6848L16.2416 17.6856L14.1162 19.811L14.1162 19.8111C14.0052 19.9221 13.9429 20.0727 13.9429 20.2298C13.9429 20.3868 14.0052 20.5374 14.1162 20.6485L14.1162 20.6485L20.759 27.2915L17.6342 30.4152L10.9926 23.7721L10.9925 23.7721C10.8814 23.6612 10.7309 23.5989 10.5739 23.5989C10.4169 23.5989 10.2663 23.6612 10.1552 23.7721L10.1551 23.7721L8.02915 25.8975L8.02896 25.8977C7.97015 25.9568 7.89532 25.9974 7.8137 26.0145C7.73208 26.0316 7.64726 26.0243 7.5697 25.9937C7.49214 25.9631 7.42525 25.9105 7.37728 25.8423C7.32932 25.774 7.30238 25.6933 7.29981 25.6099L7.2998 25.6097L7.02024 17.118C7.02024 17.118 7.02024 17.118 7.02024 17.118C7.01834 17.0596 7.02844 17.0015 7.04991 16.9472C7.07138 16.8929 7.10378 16.8435 7.14509 16.8022C7.1864 16.7609 7.23574 16.7286 7.29007 16.7071C7.34439 16.6857 7.40254 16.6756 7.46092 16.6775L15.9524 16.9588L15.9524 16.9588L15.954 16.9588C16.0371 16.9603 16.118 16.9865 16.1861 17.0341C16.2543 17.0817 16.3067 17.1486 16.3366 17.2262L16.3414 17.2253ZM18.054 31.6712L22.015 27.7102C22.0151 27.7102 22.0151 27.7102 22.0151 27.7102C22.0701 27.6552 22.1138 27.5899 22.1436 27.5181C22.1733 27.4462 22.1887 27.3692 22.1887 27.2914C22.1887 27.2136 22.1733 27.1366 22.1436 27.0647C22.1138 26.9929 22.0701 26.9276 22.0151 26.8726L18.054 31.6712Z" fill="#101010" stroke="#101010" stroke-width="0.2"/>
<path d="M28.4985 20.5071L28.4985 20.5071H28.5018H28.551C28.7671 20.5071 28.981 20.4637 29.1799 20.3794C29.3789 20.2951 29.5588 20.1716 29.7091 20.0164C29.8594 19.8611 29.9769 19.6772 30.0547 19.4756C30.1324 19.2741 30.1689 19.0589 30.1619 18.8429L30.1619 18.8429L29.8823 10.3511L29.8823 10.3511C29.8719 10.0372 29.77 9.73312 29.5891 9.47635C29.4081 9.21958 29.1561 9.0213 28.864 8.9059C28.5718 8.79049 28.2523 8.763 27.9448 8.82681C27.6372 8.89061 27.355 9.04292 27.1329 9.26501L25.425 10.9715L18.7831 4.32852L18.7831 4.3285L18.7811 4.32658C18.6685 4.22009 18.5194 4.16074 18.3645 4.16074C18.2095 4.16074 18.0604 4.22009 17.9478 4.32658L17.9478 4.32656L17.9458 4.32852L13.9848 8.2896C13.9847 8.28961 13.9847 8.28962 13.9847 8.28964C13.9297 8.3446 13.886 8.40987 13.8563 8.48172C13.8265 8.55358 13.8111 8.63061 13.8111 8.7084C13.8111 8.78619 13.8265 8.86322 13.8563 8.93508C13.886 9.00693 13.9297 9.07219 13.9847 9.12716C13.9847 9.12717 13.9847 9.12719 13.9848 9.1272L20.6274 15.7699L18.9213 17.476C18.9212 17.4762 18.9211 17.4763 18.9209 17.4764C18.6963 17.6971 18.5422 17.9795 18.4783 18.2879C18.4143 18.5961 18.4433 18.9163 18.5614 19.208C18.6744 19.5019 18.872 19.7557 19.1293 19.9372C19.3867 20.1188 19.6923 20.2198 20.0072 20.2275C20.0073 20.2275 20.0075 20.2275 20.0076 20.2275L28.4985 20.5071ZM19.7581 18.3142L19.7582 18.3142L21.8836 16.1888L21.8836 16.1887C21.9946 16.0777 22.0569 15.9271 22.0569 15.77C22.0569 15.613 21.9946 15.4624 21.8836 15.3513L21.8836 15.3513L15.2409 8.70827L18.3656 5.58464L25.0083 12.2277L25.0083 12.2277C25.1194 12.3387 25.27 12.401 25.4271 12.401C25.5841 12.401 25.7347 12.3387 25.8458 12.2277L25.8458 12.2276L27.9707 10.1022L27.9708 10.1021C28.0297 10.043 28.1045 10.0024 28.1861 9.9853C28.2677 9.96824 28.3525 9.97546 28.4301 10.0061C28.5077 10.0367 28.5746 10.0893 28.6225 10.1575C28.6705 10.2258 28.6974 10.3065 28.7 10.3899L28.7 10.3901L28.9796 18.8818L28.9796 18.8822C28.9817 18.9404 28.9718 18.9985 28.9504 19.0527C28.929 19.1069 28.8966 19.1561 28.8552 19.1971L28.8542 19.1981C28.8135 19.2397 28.7644 19.2723 28.7103 19.2937C28.6561 19.3151 28.5981 19.3248 28.5399 19.3223L28.5389 19.3223L20.0474 19.0427L20.0471 19.0427C19.9638 19.0402 19.883 19.0134 19.8148 18.9655C19.7466 18.9177 19.6938 18.8509 19.6631 18.7734C19.6324 18.696 19.625 18.6112 19.6419 18.5296C19.6588 18.448 19.6992 18.3731 19.7581 18.3142Z" fill="#101010" stroke="#101010" stroke-width="0.2"/>
</svg>
