<svg width="36" height="37" viewBox="0 0 36 37" fill="none" xmlns="http://www.w3.org/2000/svg">
<path d="M27.463 19.6447C27.4988 16.8656 28.9912 14.2361 31.3588 12.7805C29.8652 10.6473 27.3634 9.29484 24.7606 9.2134C21.9845 8.92201 19.2932 10.8746 17.8785 10.8746C16.4365 10.8746 14.2584 9.24233 11.9129 9.29059C8.85574 9.38936 6.00567 11.1275 4.51829 13.8003C1.321 19.3359 3.70589 27.4714 6.76863 31.946C8.30098 34.1371 10.0919 36.5846 12.4352 36.4978C14.7283 36.4026 15.5847 35.0355 18.3527 35.0355C21.0949 35.0355 21.8984 36.4978 24.2893 36.4426C26.7499 36.4026 28.3002 34.2418 29.7788 32.0299C30.8798 30.4687 31.727 28.7432 32.2891 26.9174C29.3974 25.6944 27.4663 22.7843 27.463 19.6447Z" fill="#282828"/>
<path d="M22.947 6.2707C24.2886 4.66014 24.9495 2.59003 24.7895 0.5C22.7398 0.715281 20.8465 1.6949 19.4867 3.24367C18.1571 4.7569 17.4651 6.79058 17.5959 8.80073C19.6464 8.82184 21.6621 7.86878 22.947 6.2707Z" fill="#282828"/>
</svg>
